<mxfile host="app.diagrams.net" modified="2021-01-27T12:31:23.753Z" agent="5.0 (Macintosh)" etag="t1nYsgR8hZXE_79Am80M" version="14.2.7" type="github">
  <diagram id="prtHgNgQTEPvFCAcTncT" name="Page-1">
    <mxGraphModel dx="1227" dy="687" grid="1" gridSize="10" guides="1" tooltips="1" connect="1" arrows="1" fold="1" page="1" pageScale="1" pageWidth="1169" pageHeight="827" math="0" shadow="0">
      <root>
        <mxCell id="0" />
        <mxCell id="1" parent="0" />
        <mxCell id="0CfCh1Eo6uAoMnPPUOGd-8" value="Phase" style="swimlane;startSize=20;horizontal=0;" parent="1" vertex="1">
          <mxGeometry x="20" y="40" width="3440" height="120" as="geometry" />
        </mxCell>
        <mxCell id="EfLQFWM3FFN7FcB2GHAe-1" value="Aktionen" style="swimlane;startSize=20;horizontal=0;" vertex="1" parent="1">
          <mxGeometry x="20" y="160" width="3440" height="120" as="geometry" />
        </mxCell>
      </root>
    </mxGraphModel>
  </diagram>
</mxfile>
